<svg width="170" height="67" viewBox="0 0 186 67" fill="none" xmlns="http://www.w3.org/2000/svg">
<path d="M49.6969 11H0.3039C0.136181 11 0 11.1421 0 11.3174V60.6826C0 60.8579 0.136181 61 0.3039 61H49.6969C49.8646 61 50 60.8579 50 60.6826V11.3174C50 11.1421 49.8646 11 49.6969 11Z" fill="#424241"/>
<path d="M13.2161 22.0035V49.9963Z" fill="#DDDDDD"/>
<path d="M13.2161 22.0035V49.9963" stroke="white" stroke-width="3.46892"/>
<path d="M21.2878 22.0035V35.947Z" fill="#DDDDDD"/>
<path d="M21.2878 22.0035V35.947" stroke="white" stroke-width="3.46234"/>
<path d="M27.4382 22.0045V26.7407H35.1416L40.7297 38.7385H45.7612L37.77 22.0045H27.4382Z" fill="white"/>
<path d="M29.7371 31.3174V49.9964Z" fill="#DDDDDD"/>
<path d="M29.7371 31.3174V49.9964" stroke="white" stroke-width="4.00739"/>
<path d="M74.608 52L73.6 46.672H66.016L65.008 52H58.48L64.96 18.4H74.896L81.04 52H74.608ZM69.712 24.64L67.84 35.824L66.784 41.536H72.784L71.68 35.824L69.808 24.64H69.712ZM83.5953 52V27.472H89.9313V52H83.5953ZM83.5953 18.4H89.9313V24.88H83.5953V18.4ZM112.624 52H107.776L106.912 50.272C106.208 50.912 105.536 51.36 104.896 51.616C104.288 51.872 103.36 52 102.112 52H97.9364C96.5284 50.656 95.4084 48.896 94.5764 46.72C93.7764 44.544 93.3764 42.112 93.3764 39.424C93.3764 36.704 93.7764 34.4 94.5764 32.512C95.4084 30.624 96.5764 28.944 98.0804 27.472H102.208C103.904 27.472 105.248 27.92 106.24 28.816V18.4H112.624V52ZM106.24 32.512H101.632C100.448 34.528 99.8564 37.008 99.8564 39.952C99.8564 42.864 100.432 45.2 101.584 46.96H106.24V32.512Z" fill="#424241"/>
<path d="M123.552 52H116.976V18.4H123.552V31.936H131.232V18.4H137.808V52H131.232V38.08H123.552V52ZM150.685 52H145.645C144.237 50.208 143.277 48.416 142.765 46.624C142.253 44.832 141.997 42.592 141.997 39.904V27.472H148.381V40.384C148.381 43.296 148.957 45.488 150.109 46.96H154.573V27.472H160.957V52H155.917L155.053 50.272C153.837 51.424 152.381 52 150.685 52ZM165.064 18.4H171.4V29.2C172.104 28.56 172.76 28.112 173.368 27.856C174.008 27.6 174.952 27.472 176.2 27.472H180.04C181.384 28.784 182.44 30.48 183.208 32.56C183.976 34.64 184.36 36.928 184.36 39.424C184.36 44.768 182.76 48.96 179.56 52H175C173.432 52 172.12 51.408 171.064 50.224L170.2 52H165.064V18.4ZM171.448 46.96H176.056C177.24 44.944 177.832 42.496 177.832 39.616C177.832 36.736 177.224 34.368 176.008 32.512H171.448V46.96Z" fill="#968864"/>
</svg>
