<svg width="1045" height="761" viewBox="0 0 1045 761" fill="none" xmlns="http://www.w3.org/2000/svg">
<g clip-path="url(#clip0_87_5145)">
<path d="M852.472 731.654C845.685 731.654 838.899 731.15 832.113 729.893C597.61 687.386 327.669 607.404 71.8022 504.785C13.7421 481.394 -14.4083 415.748 8.96656 357.647C32.3414 299.547 97.9418 271.377 156.002 294.768C398.045 391.854 652.403 467.309 872.328 507.3C933.907 518.367 974.624 577.222 963.565 638.844C953.763 693.423 906.259 731.654 852.472 731.654Z" fill="#968864"/>
<path d="M843.926 288.229C841.161 288.229 838.648 288.229 835.883 287.977C454.848 261.316 152.986 218.81 -86.7949 157.943C-147.368 142.6 -184.064 80.9784 -168.481 20.3628C-153.149 -40.2529 -91.5704 -76.7229 -30.9969 -61.3803C195.463 -3.78289 484.255 36.7114 851.718 62.3661C914.051 66.6419 961.052 120.718 956.779 183.094C952.506 242.704 902.74 288.229 843.926 288.229Z" fill="#968864"/>
<path d="M20.5283 166.746C-15.9164 166.746 -49.3449 164.734 -77.7466 159.955C-139.325 149.643 -180.797 91.0392 -170.492 29.4175C-160.187 -32.2043 -101.624 -73.7046 -40.0452 -63.3924C18.7689 -53.3317 172.088 -60.6257 425.692 -110.426C620.231 -148.657 808.235 -200.218 883.135 -236.185C939.436 -263.097 1007.05 -239.203 1033.94 -182.863C1060.83 -126.523 1036.96 -58.8651 980.656 -31.9527C867.804 22.1235 634.558 78.9664 469.175 111.664C354.562 134.3 164.547 166.746 20.5283 166.746Z" fill="url(#paint0_linear_87_5145)"/>
<path d="M315.856 872C255.785 872 206.019 824.966 203.003 764.351C199.987 701.975 247.993 648.904 310.577 645.886C497.828 636.832 661.954 594.325 798.182 519.373C852.974 489.191 921.591 509.312 951.752 564.143C981.913 618.974 961.806 687.638 907.013 717.82C740.373 809.372 543.321 861.185 321.385 872C319.374 872 317.615 872 315.856 872Z" fill="url(#paint1_linear_87_5145)"/>
<path d="M114.028 513.085C56.2189 513.085 6.9558 469.069 1.42626 410.214C-4.35461 348.09 41.3897 292.756 103.723 287.222C412.622 258.801 564.936 199.191 789.385 75.948C844.177 46.0175 912.794 65.8874 942.955 120.718C972.865 175.549 953.009 244.213 898.216 274.395C781.844 338.28 679.548 389.087 558.904 428.827C433.484 470.076 295.497 496.736 124.584 512.582C121.065 512.833 117.546 513.085 114.028 513.085Z" fill="url(#paint2_linear_87_5145)"/>
</g>
<defs>
<linearGradient id="paint0_linear_87_5145" x1="-171.53" y1="-42.8629" x2="1043.95" y2="-32.0876" gradientUnits="userSpaceOnUse">
<stop stop-color="#968864"/>
<stop offset="1" stop-color="#EDE4CD"/>
</linearGradient>
<linearGradient id="paint1_linear_87_5145" x1="203.202" y1="686.354" x2="965.153" y2="691.135" gradientUnits="userSpaceOnUse">
<stop stop-color="#968864"/>
<stop offset="1" stop-color="#EDE4CD"/>
</linearGradient>
<linearGradient id="paint2_linear_87_5145" x1="1.35189" y1="284.707" x2="956.085" y2="290.809" gradientUnits="userSpaceOnUse">
<stop stop-color="#968864"/>
<stop offset="1" stop-color="#EDE4CD"/>
<stop offset="1" stop-color="#EDE4CD"/>
</linearGradient>
<clipPath id="clip0_87_5145">
<rect width="1217" height="1119" fill="white" transform="translate(-172 -247)"/>
</clipPath>
</defs>
</svg>
